<?xml version="1.0" encoding="UTF-8"?>
<svg version="1.1" xmlns="http://www.w3.org/2000/svg" width="400" height="394">
<path d="M0 0 C1.03543945 -0.03673828 1.03543945 -0.03673828 2.09179688 -0.07421875 C7.26077813 -0.1036158 10.10321847 1.1225278 14.0625 4.375 C18.03559723 8.57765395 20.78592189 13.39956089 23.0078125 18.7109375 C23.95760789 20.56238489 23.95760789 20.56238489 26.1171875 21.2265625 C28.0625 22.375 28.0625 22.375 28.9140625 25.05859375 C29.08463523 28.86954768 28.4826483 31.77150272 27.4375 35.4375 C27.11523438 36.62472656 26.79296875 37.81195313 26.4609375 39.03515625 C24.90755919 42.74504019 23.06093918 44.74015893 20.0625 47.375 C21.51269531 47.43107422 21.51269531 47.43107422 22.9921875 47.48828125 C40.38377577 48.36647036 40.38377577 48.36647036 47.36865234 52.85791016 C57.47973937 59.17138793 67.98987805 57.94645099 79.5 57.5625 C82.5063757 57.47935775 85.5123029 57.40534819 88.51930237 57.34895325 C90.37838174 57.31245702 92.23723649 57.25991624 94.09532166 57.18901062 C99.07073302 57.07320925 101.91086449 57.35971104 106.0625 60.375 C109.78920717 61.86203723 112.84505668 61.04058134 116.71484375 60.265625 C117.36226532 60.13896454 118.00968689 60.01230408 118.67672729 59.88180542 C120.06440467 59.61008701 121.45141491 59.33494319 122.83779907 59.05670166 C126.48359446 58.32878785 130.13664214 57.6390723 133.7890625 56.9453125 C134.51118423 56.80765472 135.23330597 56.66999695 135.97731018 56.52816772 C158.92969964 52.15839504 183.16557292 49.02706259 206.0625 55.375 C206.96226562 55.61863281 207.86203125 55.86226562 208.7890625 56.11328125 C218.42120255 59.33928371 228.96977898 67.14297955 234.16796875 75.9375 C235.87648459 80.59301914 236.17918744 85.5456894 235.0625 90.375 C233.30859375 92.2734375 233.30859375 92.2734375 231.0625 93.375 C228.80859375 93.265625 228.80859375 93.265625 226.5 92.625 C225.73558594 92.42390625 224.97117187 92.2228125 224.18359375 92.015625 C222.46765738 91.49736798 220.76300732 90.94183577 219.0625 90.375 C219.3925 91.014375 219.7225 91.65375 220.0625 92.3125 C221.35443135 96.26903976 221.81634565 100.24911362 221.0625 104.375 C218.0625 106.375 218.0625 106.375 214.8125 106.3125 C210.18497765 105.15561941 207.77123193 103.32684786 204.0625 100.375 C204.09730469 101.42300781 204.13210938 102.47101563 204.16796875 103.55078125 C204.19610937 104.92967147 204.22340924 106.30857902 204.25 107.6875 C204.28770508 108.72293945 204.28770508 108.72293945 204.32617188 109.77929688 C204.39999782 114.87328683 204.39999782 114.87328683 202.75390625 117.3203125 C199.71726854 119.21382793 197.54187528 118.89690629 194.0625 118.375 C187.79957664 114.63329333 184.90016077 109.02606483 181.875 102.625 C181.05910999 100.91661059 180.23269184 99.21319907 179.39453125 97.515625 C179.04108643 96.76829102 178.6876416 96.02095703 178.32348633 95.25097656 C176.77280816 92.94402379 175.6191025 92.42966141 173.0625 91.375 C165.50069757 90.06736372 157.70021185 90.2392684 150.05078125 90.27734375 C148.95654343 90.2787587 147.8623056 90.28017365 146.73490906 90.28163147 C143.28157678 90.28717469 139.82831228 90.29971621 136.375 90.3125 C134.01627699 90.31752235 131.65755294 90.32208396 129.29882812 90.32617188 C123.55336277 90.33712544 117.80793623 90.35380587 112.0625 90.375 C111.753125 91.179375 111.44375 91.98375 111.125 92.8125 C110.0625 95.375 110.0625 95.375 109.0625 96.375 C106.40786879 96.82959858 103.74060862 97.07743238 101.0625 97.375 C101.50980469 97.95765625 101.95710937 98.5403125 102.41796875 99.140625 C107.78679626 106.42116721 111.46266746 113.92371875 114.01171875 122.609375 C114.86565908 125.66323057 114.86565908 125.66323057 118.0625 127.375 C117.7325 128.365 117.4025 129.355 117.0625 130.375 C116.90924177 132.37303326 116.78852989 134.37364597 116.6875 136.375 C116.32787073 141.76943911 115.37633121 146.45492959 113.5859375 151.546875 C112.37811955 158.07269735 114.26322878 164.71607854 115.8125 171.0625 C119.89849212 188.70872354 122.61398943 206.71688302 124.8125 224.6875 C124.92795166 225.62086182 125.04340332 226.55422363 125.16235352 227.51586914 C126.99808152 243.39164576 127.34968556 259.35063927 127.4675293 275.31787109 C127.4893889 277.54426313 127.52380715 279.77056333 127.57006836 281.99658203 C127.63674036 285.25330782 127.66443589 288.50831565 127.68359375 291.765625 C127.71142441 292.75830383 127.73925507 293.75098267 127.76792908 294.77374268 C127.74793274 301.44591367 127.74793274 301.44591367 125.79281616 304.09602356 C122.48954861 306.94782259 118.96742622 308.39072894 114.8125 309.5625 C113.68972656 309.88089844 112.56695312 310.19929688 111.41015625 310.52734375 C106.9808969 311.6488715 102.55991698 312.56949248 98.0625 313.375 C98.0625 317.665 98.0625 321.955 98.0625 326.375 C102.85558342 326.84022293 102.85558342 326.84022293 107 324.875 C107.350625 324.38 107.70125 323.885 108.0625 323.375 C111.0625 325.375 111.0625 325.375 111.75 327.5 C111.853125 328.11875 111.95625 328.7375 112.0625 329.375 C112.825625 328.694375 113.58875 328.01375 114.375 327.3125 C115.261875 326.673125 116.14875 326.03375 117.0625 325.375 C118.0525 325.705 119.0425 326.035 120.0625 326.375 C120.0625 328.025 120.0625 329.675 120.0625 331.375 C121.3628418 331.44231323 121.3628418 331.44231323 122.68945312 331.51098633 C125.94044067 331.6853946 129.19052155 331.87128626 132.44042969 332.06469727 C133.84056565 332.14572216 135.24096603 332.2223156 136.64160156 332.29418945 C154.17768972 333.20101284 154.17768972 333.20101284 159.73168945 337.73876953 C162.01696459 340.54851343 161.64360368 344.08182051 161.75 347.5625 C161.78416016 348.31208984 161.81832031 349.06167969 161.85351562 349.83398438 C161.93584294 351.68046838 162.00085281 353.52770994 162.0625 355.375 C158.84790122 357.27137969 156.48424711 357.62361738 152.77270508 357.61791992 C151.71251663 357.62099655 150.65232819 357.62407318 149.56001282 357.62724304 C147.83841194 357.61646477 147.83841194 357.61646477 146.08203125 357.60546875 C144.88180832 357.60501053 143.68158539 357.60455231 142.44499207 357.6040802 C139.89032001 357.6010547 137.33564986 357.59315957 134.78100586 357.58081055 C130.9626574 357.56291092 127.1445573 357.56029865 123.32617188 357.56054688 C111.29702491 357.54342681 99.28242512 357.39297546 87.26171875 356.92578125 C86.25986038 356.88728561 85.25800201 356.84878998 84.2257843 356.80912781 C68.16810333 356.11206889 68.16810333 356.11206889 64.0625 353.375 C64.53816406 352.07369141 64.53816406 352.07369141 65.0234375 350.74609375 C66.72328983 344.79661059 66.53290763 338.57932594 66.6875 332.4375 C66.74550781 330.55321289 66.74550781 330.55321289 66.8046875 328.63085938 C66.89853217 325.54571574 66.98422316 322.46057135 67.0625 319.375 C64.0925 319.375 61.1225 319.375 58.0625 319.375 C57.18757742 315.87530969 57.19221124 313.81429108 58.0625 310.375 C58.20173509 308.62162554 58.29620449 306.86444001 58.35961914 305.10668945 C58.39958511 304.0549202 58.43955109 303.00315094 58.48072815 301.91950989 C58.51931442 300.78720444 58.5579007 299.65489899 58.59765625 298.48828125 C58.64063339 297.31669968 58.68361053 296.1451181 58.72789001 294.93803406 C58.81806747 292.45754046 58.90619481 289.97697161 58.99243164 287.49633789 C59.12389018 283.71938649 59.26157265 279.94270297 59.40039062 276.16601562 C59.48734738 273.75261741 59.57394737 271.3392063 59.66015625 268.92578125 C59.70076675 267.80359695 59.74137726 266.68141266 59.78321838 265.52522278 C59.99201289 259.470582 60.10350116 253.43322036 60.0625 247.375 C59.32906372 248.09405518 59.32906372 248.09405518 58.58081055 248.82763672 C57.41455078 249.97102865 56.24829102 251.11442057 55.08203125 252.2578125 C52.94820871 254.42589255 52.94820871 254.42589255 50.83984375 257.21484375 C47.67031938 261.06092692 43.80156995 263.86523697 39.8125 266.8125 C38.27429985 267.96295396 36.73653412 269.113989 35.19921875 270.265625 C34.4726709 270.80767578 33.74612305 271.34972656 32.99755859 271.90820312 C30.81652306 273.56145337 28.72205101 275.30449317 26.625 277.0625 C19.7490084 282.43270274 11.74682686 286.30426594 4.0625 290.375 C3.39395996 290.73190918 2.72541992 291.08881836 2.03662109 291.45654297 C-15.88760837 300.96914483 -33.10425398 303.40331349 -53.0859375 299.80859375 C-55.66555945 299.41634987 -57.96461757 299.32886128 -60.5625 299.4375 C-63.9375 299.375 -63.9375 299.375 -65.55830383 298.10267639 C-67.89733166 295.17264856 -68.74815105 291.58931031 -69.85546875 288.05859375 C-70.11757645 287.24632828 -70.37968414 286.43406281 -70.6497345 285.59718323 C-71.20103946 283.8829766 -71.74795356 282.16735245 -72.29077148 280.45043945 C-73.12387456 277.81605879 -73.9698833 275.18610558 -74.81835938 272.55664062 C-75.35231849 270.89086714 -75.88554688 269.22485921 -76.41796875 267.55859375 C-76.67104294 266.76899765 -76.92411713 265.97940155 -77.18486023 265.1658783 C-78.9375 259.60970899 -78.9375 259.60970899 -78.9375 257.375 C-79.8965625 257.808125 -79.8965625 257.808125 -80.875 258.25 C-84.21391625 259.47654066 -87.44432944 260.06347389 -90.94921875 260.6171875 C-93.10326586 261.21908876 -93.10326586 261.21908876 -94.23828125 263.3125 C-95.07379593 265.77703492 -94.59287054 266.91736047 -93.9375 269.375 C-94.5975 270.035 -95.2575 270.695 -95.9375 271.375 C-95.9375 272.695 -95.9375 274.015 -95.9375 275.375 C-98.2475 275.045 -100.5575 274.715 -102.9375 274.375 C-103.46250285 276.05113615 -103.98730666 277.72733485 -104.51123047 279.40380859 C-104.96637377 280.85665231 -105.42377299 282.30879102 -105.88330078 283.76025391 C-106.95408059 287.15564535 -107.98305169 290.54317683 -108.9140625 293.98046875 C-110.92774015 301.30850437 -113.5453475 307.84094875 -118.9375 313.375 C-122.23856567 314.77584516 -123.027378 314.34453288 -126.625 313.125 C-129.9375 311.375 -129.9375 311.375 -130.9375 308.375 C-131.5975 308.375 -132.2575 308.375 -132.9375 308.375 C-132.96261996 302.98966799 -132.98055388 297.60437167 -132.99243164 292.21899414 C-132.99739441 290.39509485 -133.0041668 288.5711994 -133.01293945 286.74731445 C-133.06244486 276.17354144 -132.90556878 265.68396899 -132.15405273 255.13452148 C-131.99761655 252.41866937 -131.91682726 249.77243824 -131.92944336 247.05786133 C-131.93607812 244.02497019 -131.75661869 241.55097724 -131.0625 238.625 C-130.90007812 237.90828125 -130.73765625 237.1915625 -130.5703125 236.453125 C-129.90727883 234.27575517 -129.01119337 232.37802461 -127.9375 230.375 C-127.40125 230.43558594 -126.865 230.49617187 -126.3125 230.55859375 C-112.84073624 231.99883165 -99.47325601 232.53699708 -85.9375 232.375 C-85.6075 230.725 -85.2775 229.075 -84.9375 227.375 C-81.05079302 227.98229797 -77.62733296 229.19361574 -74 230.65625 C-58.46063008 236.07148497 -39.40895943 232.24681247 -23.9375 228.375 C-23.13908691 228.18776367 -22.34067383 228.00052734 -21.51806641 227.80761719 C-3.17798359 223.4953703 10.75338271 215.66631226 21.05737305 199.56225586 C29.14810529 186.41318514 28.54409334 174.71095491 27.0625 159.875 C26.05207456 149.7570912 25.20730691 139.83456286 27.3125 129.8125 C27.66054688 128.04712891 27.66054688 128.04712891 28.015625 126.24609375 C29.0625 123.375 29.0625 123.375 33.0625 121.375 C32.4025 118.075 31.7425 114.775 31.0625 111.375 C30.7325 112.365 30.4025 113.355 30.0625 114.375 C29.4025 114.375 28.7425 114.375 28.0625 114.375 C28.03671875 115.03242188 28.0109375 115.68984375 27.984375 116.3671875 C26.738812 137.25867605 20.43351933 156.08810022 7.0625 172.375 C6.43730469 173.17421875 5.81210938 173.9734375 5.16796875 174.796875 C-3.4565747 185.26577092 -16.47189987 192.38233272 -29.9375 194.375 C-50.18253291 195.6735773 -69.88936613 189.81921684 -85.5 176.5625 C-92.16914682 170.66272577 -98.4600602 163.68034167 -101.9375 155.375 C-102.0152346 153.04296188 -102.02717728 150.70660941 -101.9375 148.375 C-98.9675 147.385 -98.9675 147.385 -95.9375 146.375 C-96.2675 145.83875 -96.5975 145.3025 -96.9375 144.75 C-98.19704167 141.75858852 -98.28702958 139.59067216 -97.9375 136.375 C-94.24344568 133.91229712 -92.30472928 134.14514583 -87.9375 134.375 C-86.59816888 134.68335215 -85.2627666 135.01091577 -83.9375 135.375 C-84.46150391 134.66537109 -84.46150391 134.66537109 -84.99609375 133.94140625 C-88.55136654 128.77467837 -89.77830754 124.62692211 -89.9375 118.375 C-87.84765625 117.55859375 -87.84765625 117.55859375 -84.9375 117.375 C-82.5400957 118.98224857 -80.52481774 120.5478132 -78.375 122.4375 C-68.00488635 131.03245089 -55.17702494 138.33048765 -41.1875 137.66015625 C-28.75775165 136.08485828 -17.1039475 133.32985413 -8.765625 123.3984375 C-4.87076971 116.95694607 -2.9872827 109.57253243 -0.9375 102.375 C-1.42879395 101.994646 -1.92008789 101.61429199 -2.42626953 101.22241211 C-4.51597165 98.66784411 -4.24334295 97.08298781 -4.1171875 93.81640625 C-4.0759375 92.70716797 -4.0346875 91.59792969 -3.9921875 90.45507812 C-3.90324219 88.71387695 -3.90324219 88.71387695 -3.8125 86.9375 C-3.77640625 85.81150391 -3.7403125 84.68550781 -3.703125 83.52539062 C-3.40489783 76.70148201 -2.4437294 70.48297042 -0.56298828 63.91381836 C0.26816213 60.5402301 0.45178198 58.1613496 -1.109375 55.0078125 C-1.63015625 54.18023437 -2.1509375 53.35265625 -2.6875 52.5 C-3.24050781 51.61828125 -3.79351562 50.7365625 -4.36328125 49.828125 C-4.88277344 49.01859375 -5.40226562 48.2090625 -5.9375 47.375 C-6.576875 46.34375 -7.21625 45.3125 -7.875 44.25 C-9.62096709 41.81622769 -11.41086401 39.75264377 -13.4375 37.5625 C-18.31938427 32.05069518 -21.70921521 25.95639401 -21.2578125 18.41796875 C-20.21038295 11.73741196 -18.40427902 6.67032637 -12.9375 2.375 C-8.7012865 0.21491276 -4.66965391 0.0086716 0 0 Z M6.625 13.25 C5.65691406 13.41242187 4.68882812 13.57484375 3.69140625 13.7421875 C0.85323956 14.26564905 0.85323956 14.26564905 -1.9375 16.375 C-4.26137947 16.76887788 -6.59543749 17.10986085 -8.9375 17.375 C-8.9375 17.705 -8.9375 18.035 -8.9375 18.375 C-6.2975 18.705 -3.6575 19.035 -0.9375 19.375 C0.0525 22.345 1.0425 25.315 2.0625 28.375 C-0.96169525 27.78696203 -3.95508453 27.14821882 -6.9375 26.375 C-7.13836443 30.09099191 -7.0894437 31.14708445 -4.9375 34.375 C-4.68880055 35.70139705 -4.48473033 37.03652427 -4.3125 38.375 C-3.04781569 44.77219478 1.06070065 49.39601709 5.0625 54.375 C9.14214281 53.07344994 9.14214281 53.07344994 13.0625 51.375 C11.91076645 48.90699953 11.01466435 47.32716435 9.0625 45.375 C8.9375 42.75 8.9375 42.75 9.0625 40.375 C11.58725462 39.11262269 13.37450466 39.27643596 16.1875 39.3125 C17.09757812 39.32152344 18.00765625 39.33054687 18.9453125 39.33984375 C19.64398438 39.35144531 20.34265625 39.36304687 21.0625 39.375 C20.7325 38.055 20.4025 36.735 20.0625 35.375 C20.7225 35.045 21.3825 34.715 22.0625 34.375 C22.79325648 32.0609378 23.46388258 29.72671131 24.0625 27.375 C23.44632813 27.12363281 22.83015625 26.87226562 22.1953125 26.61328125 C19.70392034 25.16681364 19.11547744 24.15108068 17.9375 21.5625 C17.61007813 20.85480469 17.28265625 20.14710937 16.9453125 19.41796875 C15.9378673 17.08658007 14.95436066 14.7532951 14.0625 12.375 C11.51061757 12.375 9.14024522 12.81576112 6.625 13.25 Z M-6.9375 21.375 C-6.9375 21.705 -6.9375 22.035 -6.9375 22.375 C-4.9575 22.375 -2.9775 22.375 -0.9375 22.375 C-0.9375 22.045 -0.9375 21.715 -0.9375 21.375 C-2.9175 21.375 -4.8975 21.375 -6.9375 21.375 Z M7.0625 62.375 C2.72950378 69.36654644 1.86834291 75.7917395 1.8125 83.875 C1.791875 84.62136719 1.77125 85.36773437 1.75 86.13671875 C1.71775416 90.69144383 1.92078565 93.82349682 5.0625 97.375 C7.57373789 99.05308394 10.20585662 100.34531121 12.9375 101.625 C13.99904297 102.1509375 13.99904297 102.1509375 15.08203125 102.6875 C18.71444038 104.44620833 22.02043766 105.83605836 26.0625 106.375 C31.25783756 95.98432488 27.79044753 79.58019229 27.0625 68.375 C30.0625 70.375 30.0625 70.375 30.7578125 72.125 C31.85996103 77.89625049 32.22334311 83.51916641 32.4375 89.375 C32.6723045 95.4433643 33.28953525 100.24217014 36.02685547 105.75585938 C37.2643917 108.88558326 37.72406438 111.83789595 38.19140625 115.16796875 C38.44192749 116.91436646 38.44192749 116.91436646 38.69750977 118.69604492 C38.87817993 120.02212769 38.87817993 120.02212769 39.0625 121.375 C40.85143677 121.35143433 40.85143677 121.35143433 42.67651367 121.32739258 C47.21110959 121.27202978 51.7456776 121.23827415 56.28051758 121.21020508 C58.22262638 121.19535544 60.16470317 121.17507048 62.10668945 121.14868164 C75.34898414 120.97358259 87.98726098 121.82515252 101.04267883 124.10258484 C103.38349996 124.46410717 103.38349996 124.46410717 107.0625 124.375 C105.58368553 119.35172545 103.43735378 115.0310045 100.875 110.5 C100.4742627 109.79037109 100.07352539 109.08074219 99.66064453 108.34960938 C96.6373837 103.11875458 93.28288348 98.70359844 89.0625 94.375 C87.91080361 93.04672773 86.76508652 91.71325055 85.625 90.375 C84.44104056 89.03852177 83.25358471 87.70513204 82.0625 86.375 C81.27746094 85.47201172 81.27746094 85.47201172 80.4765625 84.55078125 C67.9481706 71.03032211 47.96434006 56.93857133 29.0625 55.375 C28.0415625 55.27251953 28.0415625 55.27251953 27 55.16796875 C19.72009637 54.78406758 12.12629845 57.02184164 7.0625 62.375 Z M136.73144531 66.23974609 C125.73502016 67.92865258 115.18823056 68.76986655 104.0625 68.375 C102.56908031 71.36183937 103.65601324 73.32660978 104.5 76.5 C104.78746094 77.59570312 105.07492188 78.69140625 105.37109375 79.8203125 C105.59925781 80.66335937 105.82742187 81.50640625 106.0625 82.375 C109.62598103 83.42874404 112.5197596 83.19762677 116.20654297 82.75048828 C127.52457694 81.39113663 138.84492622 81.09232793 150.23156738 81.01950073 C152.02647359 81.00656546 153.82134363 80.98655686 155.61608887 80.95925903 C158.17932218 80.92310234 160.74122642 80.91480416 163.3046875 80.9140625 C164.06862823 80.899767 164.83256897 80.8854715 165.61965942 80.8707428 C171.07988607 80.91620765 175.59278757 82.12551377 180.0625 85.375 C181.89319255 87.86224821 183.11421489 90.41058528 184.3125 93.25 C184.93881851 94.64498214 185.56898326 96.03824425 186.203125 97.4296875 C186.50541016 98.09709961 186.80769531 98.76451172 187.11914062 99.45214844 C188.94339937 103.1705392 191.13801746 106.45051746 194.0625 109.375 C195.3825 109.375 196.7025 109.375 198.0625 109.375 C197.6269131 102.84119653 196.20812282 97.399129 193.90234375 91.26953125 C193.00312668 88.17036915 192.91508999 85.58473405 193.0625 82.375 C198.41958467 82.69070296 200.70950284 85.64587858 204.125 89.375 C208.32130471 94.11935461 208.32130471 94.11935461 214.0625 96.375 C212.5294701 91.00939535 210.11266788 87.00342036 206.69140625 82.6171875 C203.12339822 77.94744328 203.12339822 77.94744328 202.75 74.4375 C202.853125 73.756875 202.95625 73.07625 203.0625 72.375 C206.87426764 72.95941289 208.87534787 74.69243156 211.75 77.1875 C217.37731199 81.81735639 222.63158156 85.375 230.0625 85.375 C230.14696539 81.99638454 229.55074509 79.94424939 227.34375 77.37109375 C212.26214181 63.37812277 193.56171497 61.39125319 173.8125 61.8359375 C161.37341644 62.31906224 149.01600885 64.3238274 136.73144531 66.23974609 Z M72.0625 67.375 C73.7125 69.025 75.3625 70.675 77.0625 72.375 C77.96904644 73.36910293 78.86808876 74.37019488 79.75390625 75.3828125 C86.15174847 82.42243757 91.19047211 86.41030672 101.0625 87.375 C101.7225 87.375 102.3825 87.375 103.0625 87.375 C102.91756104 86.79524414 102.77262207 86.21548828 102.62329102 85.61816406 C101.10302734 79.53710938 99.58276367 73.45605469 98.0625 67.375 C89.4825 67.375 80.9025 67.375 72.0625 67.375 Z M6.0625 104.375 C5.89234375 105.41398437 5.7221875 106.45296875 5.546875 107.5234375 C3.40920479 120.06775029 1.06061785 130.62448091 -8.9375 139.375 C-20.24934949 147.12893444 -34.59271463 148.59815746 -47.9375 147.375 C-51.87623822 146.48915926 -55.31554609 145.14220712 -58.9375 143.375 C-60.34128906 142.70404297 -60.34128906 142.70404297 -61.7734375 142.01953125 C-67.91812451 138.87984871 -72.98590551 135.17052704 -77.9375 130.375 C-78.5975 130.705 -79.2575 131.035 -79.9375 131.375 C-79.44378906 132.01566406 -78.95007813 132.65632813 -78.44140625 133.31640625 C-74.69037412 138.38067699 -72.07617479 141.99595948 -71.9375 148.375 C-75.20447157 147.99511958 -77.55080888 147.61296376 -80.375 145.875 C-83.54209877 144.02108853 -86.31662238 143.729988 -89.9375 143.375 C-89.51597656 144.06207031 -89.09445313 144.74914062 -88.66015625 145.45703125 C-88.11230469 146.35808594 -87.56445312 147.25914062 -87 148.1875 C-86.45472656 149.08082031 -85.90945312 149.97414062 -85.34765625 150.89453125 C-83.9375 153.375 -83.9375 153.375 -82.9375 156.375 C-83.80375 156.045 -84.67 155.715 -85.5625 155.375 C-88.89468275 154.38768659 -91.48909538 154.21079026 -94.9375 154.375 C-93.90600642 161.17348044 -87.48216865 166.42907691 -82.28125 170.40625 C-67.12627399 180.33537222 -49.90246224 186.4150407 -31.70703125 182.71875 C-11.05995601 176.39098057 1.19890412 163.88250122 11.25 145.375 C16.58003309 135.24967864 22.0625 122.9913214 22.0625 111.375 C19.96233377 110.20058465 17.85791245 109.03535988 15.75 107.875 C15.15509766 107.54113281 14.56019531 107.20726563 13.94726562 106.86328125 C11.10421156 105.30674886 9.35589012 104.375 6.0625 104.375 Z M-121.9375 239.375 C-121.9876123 240.23963867 -122.03772461 241.10427734 -122.08935547 241.99511719 C-122.32616945 246.03867556 -122.56756648 250.08192622 -122.8125 254.125 C-122.85663025 254.8547403 -122.9007605 255.58448059 -122.94622803 256.33633423 C-123.53001954 265.89542652 -124.27367504 275.40694178 -125.32324219 284.92773438 C-126.01304562 291.43159534 -126.15240321 297.8323912 -125.9375 304.375 C-124.21273089 305.33002158 -124.21273089 305.33002158 -121.9375 305.375 C-117.39500721 301.93039066 -115.76563213 298.08851555 -114.3125 292.75 C-114.00675049 291.69365356 -114.00675049 291.69365356 -113.69482422 290.6159668 C-113.28756936 289.20057074 -112.88719643 287.78317422 -112.49414062 286.36376953 C-111.99700819 284.58761128 -111.46195635 282.82216709 -110.921875 281.05859375 C-109.01290117 274.7799951 -109.01290117 274.7799951 -109.9375 268.375 C-111.23105827 267.00304426 -112.56048702 265.66317344 -113.9375 264.375 C-113.9375 263.715 -113.9375 263.055 -113.9375 262.375 C-112.6175 261.715 -111.2975 261.055 -109.9375 260.375 C-110.2675 259.055 -110.5975 257.735 -110.9375 256.375 C-110.215625 256.519375 -109.49375 256.66375 -108.75 256.8125 C-107.821875 256.998125 -106.89375 257.18375 -105.9375 257.375 C-105.091875 257.643125 -104.24625 257.91125 -103.375 258.1875 C-100.82069374 258.64589316 -100.82069374 258.64589316 -98.73828125 256.80859375 C-96.60950595 254.44614163 -96.60950595 254.44614163 -96.984375 251.140625 C-97.21640625 249.98046875 -97.4484375 248.8203125 -97.6875 247.625 C-97.90921875 246.45453125 -98.1309375 245.2840625 -98.359375 244.078125 C-98.55015625 243.18609375 -98.7409375 242.2940625 -98.9375 241.375 C-100.89408007 241.03152513 -102.85290671 240.70084461 -104.8125 240.375 C-105.90304688 240.189375 -106.99359375 240.00375 -108.1171875 239.8125 C-112.74598281 239.28241301 -117.28499602 239.29055828 -121.9375 239.375 Z M92.4921875 331.3671875 C88.27211157 332.60725537 84.5522951 332.59617345 80.1875 332.5 C79.011875 332.48646484 79.011875 332.48646484 77.8125 332.47265625 C75.89569945 332.44928063 73.97905809 332.41341653 72.0625 332.375 C72.0625 337.325 72.0625 342.275 72.0625 347.375 C100.08281281 349.35623424 127.97899638 349.60742013 156.0625 349.375 C155.73627036 347.40513319 155.73627036 347.40513319 155.0625 345.375 C149.52438163 342.50198296 142.80033863 342.75972411 136.6875 342.375 C129.58027801 341.92454227 122.91503168 341.37573918 116.0625 339.375 C115.44375 340.365 115.44375 340.365 114.8125 341.375 C113.94625 342.365 113.94625 342.365 113.0625 343.375 C111.7425 343.375 110.4225 343.375 109.0625 343.375 C109.0625 341.725 109.0625 340.075 109.0625 338.375 C107.7425 338.045 106.4225 337.715 105.0625 337.375 C104.4025 338.365 103.7425 339.355 103.0625 340.375 C102.0725 340.705 101.0825 341.035 100.0625 341.375 C100.1553125 339.4878125 100.1553125 339.4878125 100.25 337.5625 C100.27709812 334.24326972 100.27709812 334.24326972 98.6875 331.375 C96.18927507 329.83763081 95.22362732 330.31280192 92.4921875 331.3671875 Z " fill="#030001" transform="translate(148.9375,15.625)"/>
<path d="M0 0 C13.79205558 -1.05448969 13.79205558 -1.05448969 18.52734375 1.20703125 C20.58419243 3.00309339 22.2694879 4.88831783 24 7 C24.68835938 7.71414062 25.37671875 8.42828125 26.0859375 9.1640625 C33.13109622 16.5552992 42.25990425 26.29775162 46 36 C45.47368421 40.52631579 45.47368421 40.52631579 44 42 C38.60859905 42.29329221 33.16343503 42.25822966 27.8125 41.5 C23.53865937 40.93949631 19.30601231 40.67964022 15 41 C13.68031899 42.12593494 13.68031899 42.12593494 13.5 45 C13.79976039 54.31130703 24.86124223 62.01892577 31.04882812 68.06420898 C34.42221777 71.36602453 37.74284368 74.70777508 40.9375 78.18359375 C41.50339844 78.7964624 42.06929688 79.40933105 42.65234375 80.04077148 C44.25104757 82.36497406 44.70454934 84.20992574 45 87 C44 88 44 88 42.14233398 88.11352539 C40.95619507 88.10567017 40.95619507 88.10567017 39.74609375 88.09765625 C38.89208984 88.09443359 38.03808594 88.09121094 37.15820312 88.08789062 C35.81145508 88.07532227 35.81145508 88.07532227 34.4375 88.0625 C33.53580078 88.05798828 32.63410156 88.05347656 31.70507812 88.04882812 C29.46998686 88.03700225 27.23502563 88.0205222 25 88 C25.59567387 93.42979641 26.99600473 95.51689856 30.8203125 99.19140625 C32 101 32 101 31.89453125 103.421875 C30.87093829 106.37196826 29.53425593 108.27302132 27.5625 110.6875 C26.94503906 111.45449219 26.32757813 112.22148437 25.69140625 113.01171875 C23.06993552 116.09330905 21.95402618 117.2198925 17.9375 117.5625 C14.23263383 117.55913448 14.23263383 117.55913448 13 119 C13.04125 120.134375 13.0825 121.26875 13.125 122.4375 C12.48074905 128.23575857 8.21706527 131.03328268 3.98828125 134.609375 C-3.03472222 140.22777778 -3.03472222 140.22777778 -6 142.45703125 C-7.86167958 143.89328796 -9.57687945 145.41624625 -11.3125 147 C-14 149 -14 149 -15.83984375 148.9453125 C-19.0092291 147.5583482 -20.87102598 145.36952419 -23.25 142.875 C-26.41892944 139.60084295 -29.58635861 136.38974228 -33.0625 133.4375 C-37.95777242 129.24446001 -42.70753859 124.81142703 -47 120 C-47 119.34 -47 118.68 -47 118 C-40.92803059 117.64969407 -35.88835799 118.64065676 -30.0234375 120.19921875 C-18.46045175 123.64733446 -18.46045175 123.64733446 -7 122 C-6.22072017 113.94744171 -8.20880664 109.44011055 -13 103 C-14.8733471 100.8658536 -16.76728526 98.79485335 -18.77734375 96.7890625 C-20 95 -20 95 -19.87109375 92.8984375 C-18.48293152 89.87311532 -15.74973765 88.7598321 -13 87 C-12.505 86.2575 -12.01 85.515 -11.5 84.75 C-10 83 -10 83 -6.9375 82.6875 C-4 83 -4 83 -2 84 C-0.19156337 84.14716542 1.62331566 84.2210887 3.4375 84.25 C4.40558594 84.27578125 5.37367188 84.3015625 6.37109375 84.328125 C9.00284331 84.20668182 9.00284331 84.20668182 10.8125 82.73828125 C12.68444459 79.99809921 12.58662426 77.80313534 12.49609375 74.5546875 C11.41843545 69.00517155 7.95895244 63.95895244 4 60 C3.8046875 57.92797852 3.8046875 57.92797852 3.875 55.37890625 C3.89175781 54.44828369 3.90851563 53.51766113 3.92578125 52.55883789 C3.96251953 51.07565063 3.96251953 51.07565063 4 49.5625 C4.09929375 42.55270001 4.01820589 36.00818771 2.4453125 29.140625 C1.80066556 26.04179583 1.85988957 23.15248471 2 20 C5.96 19.505 5.96 19.505 10 19 C9.52379711 14.62346871 8.33100111 12.93461995 4.9375 10.1875 C4.20402344 9.58292969 3.47054687 8.97835937 2.71484375 8.35546875 C2.14894531 7.90816406 1.58304688 7.46085938 1 7 C0.67 7.66 0.34 8.32 0 9 C0 6.03 0 3.06 0 0 Z " fill="#F95475" transform="translate(181,142)"/>
<path d="M0 0 C7.26676047 3.26845558 12.82986279 10.35527587 17 17 C17 17.66 17 18.32 17 19 C12.05703522 19.21033893 7.89054821 18.6106117 3.08984375 17.4453125 C0.68860695 16.93364709 -1.5520071 16.84206497 -4 17 C-3.83594045 24.14141554 -0.34655754 28.25587665 3.9375 33.75 C5.21762435 35.43215742 6.49757956 37.11444357 7.77734375 38.796875 C8.63187134 39.90047363 8.63187134 39.90047363 9.50366211 41.02636719 C13 45.63795073 13 45.63795073 13 50 C11.22925083 50.02705729 9.45838289 50.04642195 7.6875 50.0625 C6.70136719 50.07410156 5.71523437 50.08570313 4.69921875 50.09765625 C2 50 2 50 -1 49 C-2.72795352 48.93197033 -4.45835365 48.91504355 -6.1875 48.9375 C-7.08855469 48.94652344 -7.98960937 48.95554688 -8.91796875 48.96484375 C-9.60503906 48.97644531 -10.29210937 48.98804688 -11 49 C-11.65948201 55.3310273 -9.88070077 58.98742817 -6 64 C-2.58855206 68.15146972 0.94643851 72.1966482 4.4765625 76.24707031 C6.75946862 78.87387576 9.01430272 81.52022824 11.25 84.1875 C11.97703125 85.04730469 12.7040625 85.90710938 13.453125 86.79296875 C15 89 15 89 15 92 C9.29662647 91.5852092 5.19572244 90.31925193 0.0546875 87.85546875 C-2.39129749 86.83708336 -4.37554461 86.66136059 -7 87 C-6.54536567 92.0755079 -5.12776269 94.61134255 -1.8125 98.4375 C-1.00554687 99.38367188 -0.19859375 100.32984375 0.6328125 101.3046875 C2.06479737 102.93516533 3.49701938 104.565435 4.9296875 106.1953125 C9 110.84988038 9 110.84988038 9 113 C7.84383179 113.20363159 7.84383179 113.20363159 6.66430664 113.41137695 C3.12909388 114.03810872 -0.40417359 114.67522304 -3.9375 115.3125 C-5.14986328 115.52583984 -6.36222656 115.73917969 -7.61132812 115.95898438 C-13.6420471 117.05399297 -19.40357932 118.23759191 -25.13500977 120.43823242 C-27 121 -27 121 -31 121 C-31.23793634 102.65246407 -31.23793634 102.65246407 -30 97 C-29.01 96.01 -29.01 96.01 -28 95 C-27.65783765 90.34805286 -27.65783765 90.34805286 -29 86 C-29.08527628 83.96767366 -29.10716135 81.93252994 -29.09765625 79.8984375 C-29.09443359 78.68671875 -29.09121094 77.475 -29.08789062 76.2265625 C-29.07951172 74.95554687 -29.07113281 73.68453125 -29.0625 72.375 C-29.05798828 71.09625 -29.05347656 69.8175 -29.04882812 68.5 C-29.03701203 65.33328708 -29.02053815 62.16666644 -29 59 C-27.865625 58.525625 -26.73125 58.05125 -25.5625 57.5625 C-22.24259834 56.36377917 -22.24259834 56.36377917 -21 55 C-20.62059491 49.30892371 -20.97430594 46.86742088 -24 42 C-23.64096043 38.1198531 -22.54120378 36.07576633 -20 33.1875 C-14.72220643 26.69592228 -10.96576107 19.33232532 -7 12 C-6.38253906 10.86433594 -5.76507813 9.72867188 -5.12890625 8.55859375 C-4.11235295 6.68881826 -3.09991763 4.81679092 -2.09375 2.94140625 C-1 1 -1 1 0 0 Z " fill="#F75374" transform="translate(245,207)"/>
<path d="M0 0 C4.27824864 1.05833737 5.91364627 4.43174936 8.29296875 7.95703125 C8.77830078 8.64732422 9.26363281 9.33761719 9.76367188 10.04882812 C15.60546875 18.38849677 15.60546875 18.38849677 15.60546875 21.64453125 C6.97006777 22.27638986 -0.89415253 20.95126816 -9.27441406 19.06738281 C-14.10165004 18.0024676 -18.44623159 17.33076852 -23.39453125 17.64453125 C-24.72578125 18.77578125 -24.72578125 18.77578125 -24.83203125 21.70703125 C-23.49558429 33.7350539 -7.61277332 43.89556094 1.1171875 51.2421875 C2.60546875 52.64453125 2.60546875 52.64453125 4.60546875 55.64453125 C-2.05992809 60.49209259 -6.07824154 61.19263153 -14.33203125 60.14453125 C-15.84796875 59.89703125 -15.84796875 59.89703125 -17.39453125 59.64453125 C-17.39453125 60.38703125 -17.39453125 61.12953125 -17.39453125 61.89453125 C-17.39453125 64.14453125 -17.39453125 66.39453125 -17.39453125 68.64453125 C-18.95612184 69.12665339 -20.51885053 69.60508998 -22.08203125 70.08203125 C-22.95214844 70.34886719 -23.82226562 70.61570312 -24.71875 70.890625 C-31.14558482 72.70139744 -37.78131685 74.09874593 -44.39453125 72.64453125 C-46.88927803 70.52668866 -48.47623693 68.30356787 -50.3046875 65.59375 C-52.70015141 62.2132355 -55.40812339 59.49556164 -58.39453125 56.64453125 C-60.09781444 55.01530385 -61.77614406 53.35811768 -63.39453125 51.64453125 C-63.39453125 50.98453125 -63.39453125 50.32453125 -63.39453125 49.64453125 C-58.67822546 49.46655745 -54.46997497 49.73487931 -49.83203125 50.64453125 C-45.55439945 51.47629299 -41.74371145 52.01467425 -37.39453125 51.64453125 C-35.14042966 49.78191474 -35.14042966 49.78191474 -34.95703125 46.89453125 C-36.07551779 38.5857741 -45.26776513 33.48608493 -51.39453125 28.64453125 C-52.8021875 27.58105469 -52.8021875 27.58105469 -54.23828125 26.49609375 C-55.305625 25.57957031 -55.305625 25.57957031 -56.39453125 24.64453125 C-56.39453125 23.98453125 -56.39453125 23.32453125 -56.39453125 22.64453125 C-55.82420166 22.6194751 -55.25387207 22.59441895 -54.66625977 22.56860352 C-52.09626968 22.45296576 -49.52667598 22.33009501 -46.95703125 22.20703125 C-45.6102832 22.14805664 -45.6102832 22.14805664 -44.23632812 22.08789062 C-43.38232422 22.04599609 -42.52832031 22.00410156 -41.6484375 21.9609375 C-40.46229858 21.90595093 -40.46229858 21.90595093 -39.25219727 21.84985352 C-37.38051684 21.83889868 -37.38051684 21.83889868 -36.39453125 20.64453125 C-36.27078125 19.51015625 -36.14703125 18.37578125 -36.01953125 17.20703125 C-35.71015625 15.44359375 -35.71015625 15.44359375 -35.39453125 13.64453125 C-32.07287354 11.43009277 -29.85828068 11.04095394 -25.95703125 10.33203125 C-18.54274186 8.81844057 -10.34918702 6.88154678 -4.37109375 1.98828125 C-2.39453125 0.64453125 -2.39453125 0.64453125 0 0 Z " fill="#F75374" transform="translate(156.39453125,238.35546875)"/>
<path d="M0 0 C4.57127802 -0.19886761 9.1400035 -0.34341878 13.71459961 -0.43945312 C15.26778039 -0.47950603 16.82066285 -0.53397031 18.37280273 -0.60351562 C31.16936871 -1.16221 31.16936871 -1.16221 35.44921875 1.55493164 C37.28658388 3.60282819 38.63870029 5.61321399 40 8 C40.8715689 9.24927524 41.74392397 10.49800249 42.6171875 11.74609375 C47.6633139 19.80038474 50.83321576 25.57233555 49.5625 35.375 C47.22840301 39.29628294 44.20861909 39.73061399 40 41 C38.65881716 41.54351875 37.32461924 42.10477545 36 42.6875 C35.01 43.120625 34.02 43.55375 33 44 C33.40638309 49.99415064 34.18186051 52.2909613 38 57 C37.63520422 60.59934314 36.48872053 63.30465629 34.71484375 66.42578125 C34.26689453 67.22177734 33.81894531 68.01777344 33.35742188 68.83789062 C32.88884766 69.65451172 32.42027344 70.47113281 31.9375 71.3125 C31.46505859 72.14845703 30.99261719 72.98441406 30.50585938 73.84570312 C29.34332244 75.90069265 28.17457909 77.95187737 27 80 C22.85136459 78.13190743 20.56409868 75.35250017 17.75 71.875 C12.28321588 65.2702109 6.37285477 59.24574822 0.16894531 53.33154297 C-0.48879883 52.69361816 -1.14654297 52.05569336 -1.82421875 51.3984375 C-2.70726685 50.55804932 -2.70726685 50.55804932 -3.6081543 49.70068359 C-5.15780974 47.80717372 -5.59680201 46.39045801 -6 44 C-4.2709226 43.97274659 -2.54171824 43.95349013 -0.8125 43.9375 C0.63189453 43.92009766 0.63189453 43.92009766 2.10546875 43.90234375 C4.86832268 43.99555745 7.2995017 44.44801135 10 45 C11.8517785 45.11294536 13.70732512 45.17459892 15.5625 45.1875 C16.49191406 45.20167969 17.42132813 45.21585938 18.37890625 45.23046875 C21.13249387 44.98835002 22.73092954 44.56772141 25 43 C26.29799693 38.58681042 26.32252813 35.22913333 24.2578125 31.0625 C19.29468679 22.92420692 13.12480833 15.77097596 6.54296875 8.92114258 C4.33459231 6.59940387 3.02912025 5.08736075 2 2 C1.34 2 0.68 2 0 2 C0 1.34 0 0.68 0 0 Z " fill="#F85375" transform="translate(203,143)"/>
<path d="M0 0 C4.7618912 -0.23228738 8.44844571 0.66592374 13 2 C14.45482354 2.21302773 15.91359194 2.40070125 17.375 2.5625 C21 3 21 3 22 4 C22.69416114 7.59673953 23.10201868 11.24191547 23.5625 14.875 C23.69889893 15.94878906 23.83529785 17.02257812 23.97583008 18.12890625 C25.12134969 27.79043161 25.30925682 37.28704503 25 47 C21.7 46.34 18.4 45.68 15 45 C16.00640512 51.61351936 19.44777709 55.1030375 24.00390625 59.86328125 C27.21122789 63.29655901 27.16523054 65.4799052 27.31640625 70.1015625 C27.35830078 71.31328125 27.40019531 72.525 27.44335938 73.7734375 C27.48267578 75.04445313 27.52199219 76.31546875 27.5625 77.625 C27.60568359 78.90375 27.64886719 80.1825 27.69335938 81.5 C27.79969886 84.66655348 27.90172833 87.83318753 28 91 C19.116096 92.86325106 19.116096 92.86325106 15 92 C12.66546185 89.96264059 11.15951395 88.37433488 9.375 85.9375 C8.4388979 84.74341446 7.5027007 83.54940347 6.56640625 82.35546875 C6.12699707 81.77716309 5.68758789 81.19885742 5.23486328 80.60302734 C3.67506598 78.57818964 2.00795468 76.6618957 0.3125 74.75 C-2 72 -2 72 -2 71 C2.00284154 71.41696266 5.38569897 72.05540529 9.125 73.5625 C12.20915894 74.79017492 14.63617999 75.40773576 18 75 C19.34125224 73.88938288 19.34125224 73.88938288 19.0625 71.0625 C18.0975736 65.24940682 13.75382086 61.28842074 10 57 C8.46107272 55.21803046 6.92575437 53.43301963 5.3918457 51.64672852 C4.36634723 50.4557299 3.33647289 49.26848 2.30151367 48.08569336 C-7 37.38099404 -7 37.38099404 -7 32 C-5.22880197 32.14133499 -3.45804713 32.28823208 -1.6875 32.4375 C-0.70136719 32.51871094 0.28476563 32.59992188 1.30078125 32.68359375 C4 33 4 33 7 34 C12.14943278 34.4017339 12.14943278 34.4017339 17 33 C17.98778319 26.64996521 15.66626454 23.12776951 12.15234375 17.91796875 C9.21250616 13.93238132 6.06804577 10.14780183 2.8203125 6.41015625 C1.10997922 4.14561626 0.39823009 2.7683414 0 0 Z " fill="#F25172" transform="translate(242,226)"/>
<path d="M0 0 C11.88 1.485 11.88 1.485 24 3 C23.67 5.31 23.34 7.62 23 10 C23.88378818 12.13181377 23.88378818 12.13181377 25.625 13.75 C26.25792969 14.40871094 26.89085938 15.06742187 27.54296875 15.74609375 C31.14847815 19.05353242 34.8938153 22.19557984 38.73095703 25.23144531 C40.20733781 26.42445414 41.61061235 27.70672037 43 29 C43 29.99 43 30.98 43 32 C38.13611277 32.18707259 33.73572692 31.85704179 28.9375 31 C24.51548289 30.21075391 20.48313808 29.70112413 16 30 C15.67 30.33 15.34 30.66 15 31 C15 38.02693367 18.2863038 41.12637482 23 46 C24.35841431 47.47490623 25.71666147 48.94999527 27.06665039 50.43261719 C28.39108338 51.88654505 29.72468213 53.33210717 31.05859375 54.77734375 C33 57 33 57 33 58 C28.38 58 23.76 58 19 58 C17.31560077 52.95845906 15.6402445 47.9140238 13.97280884 42.86685181 C12.9392745 39.74043249 11.90298877 36.61492797 10.86645508 33.48950195 C10.33119636 31.87364805 9.79701356 30.25743734 9.26391602 28.64086914 C5.32129641 16.61123529 5.32129641 16.61123529 0.66186523 4.84545898 C0 3 0 3 0 0 Z " fill="#F65273" transform="translate(73,253)"/>
<path d="M0 0 C0.64001953 0.61681641 0.64001953 0.61681641 1.29296875 1.24609375 C1.29296875 2.23609375 1.29296875 3.22609375 1.29296875 4.24609375 C-2.47248951 3.57713871 -5.96089413 2.52946059 -9.58203125 1.30859375 C-22.96744865 -2.81528072 -36.28720859 -3.03135837 -50.14453125 -2.87890625 C-51.76236415 -2.86884046 -53.38020323 -2.85972107 -54.99804688 -2.8515625 C-58.90119868 -2.82987053 -62.80404341 -2.79554666 -66.70703125 -2.75390625 C-67.03703125 -4.07390625 -67.36703125 -5.39390625 -67.70703125 -6.75390625 C-50.05482968 -15.58000704 -16.05878147 -10.09882133 0 0 Z " fill="#000000" transform="translate(377.70703125,65.75390625)"/>
<path d="M0 0 C0.66 0 1.32 0 2 0 C2.50641298 4.35344562 3.00398642 8.70785825 3.5 13.0625 C3.64308594 14.29162109 3.78617187 15.52074219 3.93359375 16.78710938 C4.06894531 17.98271484 4.20429688 19.17832031 4.34375 20.41015625 C4.46943359 21.50465088 4.59511719 22.59914551 4.72460938 23.72680664 C5.01398305 27.16619742 5.04582048 30.5501 5 34 C3.84775972 33.07038578 2.70340824 32.1309875 1.5625 31.1875 C0.92441406 30.66542969 0.28632813 30.14335937 -0.37109375 29.60546875 C-2 28 -2 28 -3 25 C-4.93330603 23.90833725 -4.93330603 23.90833725 -7 23 C-7.66 22.34 -8.32 21.68 -9 21 C-8.71994462 16.13064997 -6.13615539 11.93671483 -3.9375 7.6875 C-3.37192383 6.57665039 -3.37192383 6.57665039 -2.79492188 5.44335938 C-1.86871843 3.62612478 -0.93509371 1.81267596 0 0 Z " fill="#EF5070" transform="translate(256,184)"/>
<path d="M0 0 C6.27 0.66 12.54 1.32 19 2 C18.37661357 7.6104779 17.84107959 12.25330763 16.4375 17.5625 C16.16808594 18.59503906 15.89867187 19.62757813 15.62109375 20.69140625 C15.41613281 21.45324219 15.21117187 22.21507812 15 23 C14.34 23 13.68 23 13 23 C12.48050781 21.98679688 11.96101562 20.97359375 11.42578125 19.9296875 C10.72173823 18.5779249 10.01728941 17.22637359 9.3125 15.875 C8.97283203 15.20984375 8.63316406 14.5446875 8.28320312 13.859375 C6.51813375 10.49419601 4.7164056 7.51772687 2.23046875 4.6328125 C0 2 0 2 0 0 Z " fill="#EA4E6E" transform="translate(241,144)"/>
<path d="M0 0 C0.99 0 1.98 0 3 0 C5.50928107 5.01856213 4.80145127 12.98817675 3.38671875 18.3046875 C0.96447176 23.10649871 -3.18976302 25.93603307 -8 28 C-14.58993188 29.89285277 -19.79480759 28.59649895 -26 26 C-26 24.68 -26 23.36 -26 22 C-25.34 22.165 -24.68 22.33 -24 22.5 C-16.57444179 23.73759303 -11.76724745 23.18731465 -5.14453125 19.53515625 C-1.7422662 17.09965504 -0.91534847 15.05368607 0 11 C0.20379455 7.31678622 0.17984216 3.68343392 0 0 Z " fill="#000000" transform="translate(118,110)"/>
<path d="M0 0 C0.2475 0.53625 0.495 1.0725 0.75 1.625 C4.14748442 8.08022041 8.43636873 12.49686741 13.6484375 17.5859375 C16.23762291 20.24393847 18.14897814 22.80278042 20 26 C15.38 26 10.76 26 6 26 C4.98458696 23.00453153 3.98781618 20.00460755 3 17 C2.62875 15.89398438 2.2575 14.78796875 1.875 13.6484375 C1.50375 12.50632812 1.1325 11.36421875 0.75 10.1875 C0.39421875 9.10855469 0.0384375 8.02960938 -0.328125 6.91796875 C-0.98502529 4.0650355 -1.01770903 2.69431941 0 0 Z " fill="#ED506F" transform="translate(86,285)"/>
<path d="M0 0 C3.72787356 1.24262452 4.23912389 2.45060134 6.25 5.75 C7.06210938 7.04164063 7.06210938 7.04164063 7.890625 8.359375 C9.18743204 11.44614105 9.11439991 12.87531006 8 16 C5.52621876 17.23689062 3.82084683 17.13310087 1.0625 17.125 C0.18722656 17.12757813 -0.68804687 17.13015625 -1.58984375 17.1328125 C-4 17 -4 17 -7 16 C-6.40165275 11.85701333 -4.99335715 8.81805623 -2.9375 5.1875 C-2.11572266 3.72376953 -2.11572266 3.72376953 -1.27734375 2.23046875 C-0.85582031 1.49441406 -0.43429688 0.75835937 0 0 Z " fill="#EB4F6E" transform="translate(183,205)"/>
<path d="M0 0 C-0.57634139 4.75481646 -2.55068521 7.97048212 -5 12 C-5.66 12 -6.32 12 -7 12 C-11 6.97142857 -11 6.97142857 -11 3.75 C-8.53596582 -0.56205981 -4.51995165 -0.20545235 0 0 Z " fill="#E94E6E" transform="translate(248,186)"/>
<path d="M0 0 C1.79206547 0.14084796 3.58364917 0.28783701 5.375 0.4375 C6.87160156 0.55931641 6.87160156 0.55931641 8.3984375 0.68359375 C11 1 11 1 13 2 C11.92598892 4.91517292 11.22189824 6.77810176 9 9 C6.56699753 9 5.35650268 8.34837726 3.62890625 6.66015625 C0 2.45555949 0 2.45555949 0 0 Z " fill="#DF4B69" transform="translate(209,232)"/>
<path d="M0 0 C2 0 2 0 3.625 1.5 C4.07875 1.995 4.5325 2.49 5 3 C5.33 2.01 5.66 1.02 6 0 C6.66 0.33 7.32 0.66 8 1 C7.67 3.31 7.34 5.62 7 8 C5.35 8.33 3.7 8.66 2 9 C0.4375 7.3125 0.4375 7.3125 -1 5 C-0.6875 2.25 -0.6875 2.25 0 0 Z " fill="#000000" transform="translate(157,36)"/>
<path d="M0 0 C3 1 3 1 5 4 C5.1875 6.625 5.1875 6.625 5 9 C4 10 4 10 1.4375 10.0625 C0.633125 10.041875 -0.17125 10.02125 -1 10 C-1.02689216 8.52093108 -1.04634621 7.04172517 -1.0625 5.5625 C-1.07410156 4.73878906 -1.08570313 3.91507813 -1.09765625 3.06640625 C-1 1 -1 1 0 0 Z " fill="#E34C6B" transform="translate(217,251)"/>
<path d="M0 0 C0 0.99 0 1.98 0 3 C-4.95 3 -9.9 3 -15 3 C-11.07677056 -0.92322944 -5.25785342 -0.10515707 0 0 Z " fill="#D44763" transform="translate(118,253)"/>
<path d="M0 0 C1.98 0 3.96 0 6 0 C5.67 1.32 5.34 2.64 5 4 C3.02 4 1.04 4 -1 4 C-0.67 2.68 -0.34 1.36 0 0 Z " fill="#000000" transform="translate(156,31)"/>
<path d="M0 0 C1.98 0.66 3.96 1.32 6 2 C6 3.32 6 4.64 6 6 C3.37812506 4.95125002 2.20628639 4.35068687 0.75 1.875 C0.5025 1.25625 0.255 0.6375 0 0 Z " fill="#CB445F" transform="translate(262,275)"/>
<path d="M0 0 C1.40182371 2.61673759 2.60495559 5.0371669 3 8 C2.34 8.66 1.68 9.32 1 10 C0.63720544 8.71073008 0.28503302 7.41846728 -0.0625 6.125 C-0.35833984 5.04605469 -0.35833984 5.04605469 -0.66015625 3.9453125 C-1 2 -1 2 0 0 Z " fill="#C03F59" transform="translate(86,285)"/>
<path d="M0 0 C0.99 0.33 1.98 0.66 3 1 C1.1875 3 1.1875 3 -1 5 C-1.99 5 -2.98 5 -4 5 C-2.25 1.125 -2.25 1.125 0 0 Z " fill="#1C080C" transform="translate(239,184)"/>
<path d="M0 0 C0.66 0.33 1.32 0.66 2 1 C1.38125 1.598125 0.7625 2.19625 0.125 2.8125 C-2.13676954 5.00811144 -2.13676954 5.00811144 -4 8 C-4.33 6.68 -4.66 5.36 -5 4 C-3.35 2.68 -1.7 1.36 0 0 Z " fill="#C6425C" transform="translate(166,230)"/>
<path d="M0 0 C0.99 0.33 1.98 0.66 3 1 C3 1.99 3 2.98 3 4 C1.68 3.67 0.36 3.34 -1 3 C-0.67 2.01 -0.34 1.02 0 0 Z " fill="#000000" transform="translate(145,44)"/>
</svg>
