<?xml version="1.0" encoding="UTF-8"?>
<svg version="1.1" xmlns="http://www.w3.org/2000/svg" width="545" height="38">
<path d="M0 0 C4.18722803 3.65040393 4.9312066 7.74509912 6 13 C11.89334281 11.29653825 17.72035069 9.53818024 23.42578125 7.28125 C36.38749035 2.17070336 49.89781357 -1.76953555 64 -1 C66 0.625 66 0.625 67 3 C66.66172893 7.89139973 65.26469737 10.47851685 62.125 14.1875 C61.07699219 15.44626953 61.07699219 15.44626953 60.0078125 16.73046875 C58.39102565 18.55800408 56.75444299 20.30624529 55 22 C67.76970553 21.34340167 78.21884919 18.89002195 89.39355469 12.69311523 C93.41461237 10.5223708 96.30071334 9.39610349 101 10 C102.9375 11.625 102.9375 11.625 104 14 C104 17.0625 104 17.0625 103 20 C99.35546663 22.66737588 95.86426702 23.6799834 91.5 24.6875 C83.77123486 26.57995661 76.45582231 29.36186751 69.05859375 32.27026367 C68.20007813 32.60775635 67.3415625 32.94524902 66.45703125 33.29296875 C65.69366455 33.5974292 64.93029785 33.90188965 64.14379883 34.21557617 C60.02265958 35.72351609 56.3314651 36.20904853 51.9375 36.3125 C50.89464844 36.34988281 49.85179687 36.38726562 48.77734375 36.42578125 C46 36 46 36 44.19140625 34.16796875 C41.87448674 29.95193489 41.89399729 26.55429546 41.9375 21.8125 C41.94652344 20.54019531 41.95554687 19.26789062 41.96484375 17.95703125 C41.98224609 16.49330078 41.98224609 16.49330078 42 15 C30.74346122 18.01412821 19.70630749 21.20241277 8.95166016 25.72680664 C-1.29917233 29.9643174 -1.29917233 29.9643174 -6.85546875 27.98046875 C-9.79466583 25.26612827 -9.88455438 23.24181884 -10.3125 19.3125 C-10.45300781 18.13300781 -10.59351563 16.95351563 -10.73828125 15.73828125 C-10.82464844 14.83464844 -10.91101563 13.93101563 -11 13 C-24.94418686 13.32497046 -37.2612988 18.59107594 -49.83056641 24.11401367 C-56.56666634 26.99394045 -63.29805141 28.75538249 -70.4609375 30.2109375 C-73.90684695 30.87711301 -73.90684695 30.87711301 -76.66015625 32.078125 C-80.70521785 33.67183875 -84.72860227 33.5574536 -89 33 C-93.68443545 30.23738422 -94.56171306 24.95751274 -96 20 C-105.06509365 21.65383693 -113.54406045 24.88912852 -122.1875 28 C-124.49012551 28.82300448 -126.79327786 29.64452047 -129.09651184 30.46582031 C-130.52056789 30.97423722 -131.94417115 31.48392489 -133.36723328 31.99511719 C-147.83899036 37.18738109 -147.83899036 37.18738109 -155 36 C-157.6875 33.875 -157.6875 33.875 -159 31 C-159 25.8406905 -156.64337728 22.26351175 -154 18 C-163.48719459 18.82250715 -171.98245789 20.73998068 -181.0012207 23.75195312 C-186.91684872 25.71363701 -192.72728306 27.08469226 -198.84765625 28.27734375 C-202.01906615 29.0043708 -204.90826531 30.00786587 -207.9375 31.1875 C-213.14749657 33.17663232 -217.25633545 34.04520554 -222.625 32 C-225.97387481 29.1798949 -227.85440401 25.76923399 -230 22 C-237.26554229 22.45852266 -243.83860717 23.87125103 -250.79296875 25.9765625 C-252.82479496 26.57056851 -254.85669831 27.16431076 -256.88867188 27.7578125 C-260.04988142 28.69246095 -263.20965339 29.63162544 -266.36791992 30.57617188 C-269.44371484 31.4924573 -272.52414191 32.39158683 -275.60546875 33.2890625 C-276.54416306 33.57544586 -277.48285736 33.86182922 -278.44999695 34.15689087 C-283.73960352 35.68822299 -287.62829257 36.43427718 -293 35 C-295.34452834 32.65547166 -295.6926254 31.10275052 -296.5625 27.9375 C-297.2711258 24.6878857 -297.2711258 24.6878857 -299 22 C-304.98604097 22.11112516 -310.49757184 23.56370456 -316.11328125 25.50390625 C-317.62418632 26.00244629 -319.13525942 26.50047734 -320.64648438 26.99804688 C-322.97858535 27.77688198 -325.30854038 28.56114878 -327.63549805 29.35522461 C-346.56005241 35.77952324 -346.56005241 35.77952324 -355 34 C-357.29034779 32.39968683 -357.8936658 31.46998094 -358.51171875 28.73828125 C-358.56972656 27.93777344 -358.62773437 27.13726563 -358.6875 26.3125 C-358.75324219 25.50425781 -358.81898438 24.69601563 -358.88671875 23.86328125 C-358.94279297 22.94095703 -358.94279297 22.94095703 -359 22 C-359.83136475 22.39380859 -360.66272949 22.78761719 -361.51928711 23.19335938 C-364.63863753 24.66088035 -367.76444848 26.11246426 -370.89575195 27.55419922 C-372.24366481 28.1785941 -373.58880244 28.80901968 -374.9309082 29.44580078 C-389.04704269 36.13377227 -389.04704269 36.13377227 -397 35 C-400.125 32.9375 -400.125 32.9375 -402 30 C-402 24.42839466 -399.87563076 19.20222117 -398 14 C-409.32658189 16.44355193 -419.82879186 19.35556248 -429.3125 26.375 C-432.75474985 28.45636038 -435.04662555 28.45615859 -439 28 C-441 26 -441 26 -441.625 23.1875 C-441 20 -441 20 -439.59545898 18.79052734 C-403.32249899 -2.87783006 -403.32249899 -2.87783006 -387 1 C-384.47224649 4.79163027 -384.77556965 7.80874031 -384.875 12.1875 C-384.88402344 12.93708984 -384.89304687 13.68667969 -384.90234375 14.45898438 C-384.92587422 16.30612654 -384.96174439 18.15310412 -385 20 C-384.1529248 19.64695801 -383.30584961 19.29391602 -382.43310547 18.93017578 C-379.26925136 17.61273359 -376.10461948 16.29719485 -372.93945312 14.98291016 C-371.57358 14.41530394 -370.20801486 13.84695598 -368.84277344 13.27783203 C-366.87256433 12.45667188 -364.90123774 11.63824656 -362.9296875 10.8203125 C-361.15440674 10.08192139 -361.15440674 10.08192139 -359.34326172 9.32861328 C-353.37095231 6.9552156 -349.42070821 5.39482295 -343 7 C-340.81005752 10.28491373 -340.64722661 11.83095639 -340.375 15.6875 C-340.26285156 17.17830078 -340.26285156 17.17830078 -340.1484375 18.69921875 C-340.09945312 19.45847656 -340.05046875 20.21773437 -340 21 C-334.84800623 20.30639327 -330.12335264 18.87343414 -325.19921875 17.27734375 C-323.48258743 16.7332014 -321.76578507 16.1895984 -320.04882812 15.64648438 C-317.36796828 14.79405185 -314.68853349 13.93783431 -312.01196289 13.07202148 C-309.41128523 12.23291549 -306.80583257 11.41029398 -304.19921875 10.58984375 C-303.0175135 10.2008213 -303.0175135 10.2008213 -301.81193542 9.80393982 C-296.588612 8.17657568 -291.47740284 7.18822372 -286 8 C-282.19324404 10.59183384 -280.81303211 12.97226315 -279.6875 17.3125 C-279.460625 18.529375 -279.23375 19.74625 -279 21 C-272.75574525 20.49139044 -267.53677114 19.35934179 -261.6875 17.1875 C-233.55813748 7.32183089 -233.55813748 7.32183089 -221 10 C-219.01955164 11.0864403 -217.39431475 12.30691775 -215.66015625 13.75 C-210.36152819 17.73955524 -204.18944593 17.07815641 -197.98779297 16.45458984 C-193.12462214 15.71466305 -188.59001374 14.18546795 -183.9375 12.625 C-151.47637615 2.26181193 -151.47637615 2.26181193 -140.625 7.6875 C-138.03805175 9.96647822 -135.9465819 12.15499568 -134 15 C-134 15.66 -134 16.32 -134 17 C-128.56070419 16.78242817 -124.62893322 15.48732296 -119.6875 13.1875 C-109.27993876 8.53826651 -94.48413485 3.70317303 -83 6 C-77.98654711 8.61571455 -76.16980698 13.00580741 -74 18 C-68.74833462 17.33141554 -64.07374506 15.75954334 -59.12109375 13.98046875 C-58.27257339 13.68062576 -57.42405304 13.38078278 -56.54981995 13.07185364 C-53.84403032 12.11507392 -51.14062451 11.15178096 -48.4375 10.1875 C-9.56048201 -3.64208838 -9.56048201 -3.64208838 0 0 Z " fill="#F81CE4" transform="translate(441,2)"/>
</svg>
